# xmcd
#
# Track frame offsets:
#	151
#	15165
#	37519
#	52901
#	66139
#	86468
#	98143
#	109393
#	124292
#	142806
#	158952
#	174534
#	192745
#	206155
#	223537
#
# Disc length: 2985 seconds
#
# Revision: 0
# Processed by: cddbd v1.5.2PL0 Copyright (c) Steve Scherf et al.
# Submitted via: EZCDAudioConverter 2.2.2.1
#
DISCID=c90ba70f
DTITLE=Eric Clapton  - Me and Mr. Johnson 
DYEAR=1900
DGENRE=
TTITLE0=When You Got a Good Friend
TTITLE1=Little Queen of Spades
TTITLE2=They're Red Hot
TTITLE3=Me and the Devil Blues
TTITLE4=Traveling Riverside Blues
TTITLE5=Last Fair Deal Gone Down
TTITLE6=Stop Breakin' Down Blues 
TTITLE7=Milkcow's Calf Blues
TTITLE8=Kind Hearted Woman Blues 
TTITLE9=Come on in My Kitchen 
TTITLE10=If I Had Possession Over Judgement Day
TTITLE11=Love in Vain 
TTITLE12=32-20 Blues
TTITLE13=Hell Hound on My Trail
TTITLE14=bonus
EXTD=
EXTT0=
EXTT1=
EXTT2=
EXTT3=
EXTT4=
EXTT5=
EXTT6=
EXTT7=
EXTT8=
EXTT9=
EXTT10=
EXTT11=
EXTT12=
EXTT13=
EXTT14=
PLAYORDER=
